<svg version="1.1" id="Layer_1" xmlns="http://www.w3.org/2000/svg" xmlns:xlink="http://www.w3.org/1999/xlink" x="0px" y="0px" viewBox="0 0 40 40" style="enable-background:new 0 0 40 40;" xml:space="preserve">
<g>
	<g>
		<path style="fill:#E8D47B;" d="M29.1,27.5c-1.875,0-3.4-1.57-3.4-3.5s1.525-3.5,3.4-3.5c2.447,0,3.4,0.607,3.4,2.167
			C32.5,24.339,31.79,27.5,29.1,27.5z M10.9,27.5c-2.689,0-3.4-3.161-3.4-4.833c0-1.56,0.953-2.167,3.4-2.167
			c1.875,0,3.4,1.57,3.4,3.5S12.774,27.5,10.9,27.5z"></path>
	</g>
	<g>
		<path style="fill:#BA9B48;" d="M29.1,21c2.678,0,2.9,0.788,2.9,1.667C32,24.165,31.394,27,29.1,27c-1.599,0-2.9-1.346-2.9-3
			S27.501,21,29.1,21 M10.9,21c1.599,0,2.9,1.346,2.9,3s-1.301,3-2.9,3C8.606,27,8,24.165,8,22.667C8,21.788,8.222,21,10.9,21
			 M29.1,20c-2.154,0-3.9,1.791-3.9,4c0,2.209,1.746,4,3.9,4c2.903,0,3.9-3.124,3.9-5.333C33,20.458,31.254,20,29.1,20L29.1,20z
			 M10.9,20C8.746,20,7,20.458,7,22.667C7,24.876,8.005,28,10.9,28c2.154,0,3.9-1.791,3.9-4C14.8,21.791,13.054,20,10.9,20L10.9,20z
			"></path>
	</g>
</g>
<g>
	<g>
		<path style="fill:#FFEEA3;" d="M20,38.5c-1.268,0-2.445-0.526-3.316-1.483L16.6,36.925l-0.118-0.042
			C12.306,35.396,9.5,31.424,9.5,27V12.381c0-2.615,2.127-4.742,4.742-4.742h11.516c2.615,0,4.742,2.127,4.742,4.742V27
			c0,4.424-2.806,8.396-6.982,9.883L23.4,36.925l-0.084,0.092C22.445,37.974,21.268,38.5,20,38.5z"></path>
	</g>
	<g>
		<path style="fill:#BA9B48;" d="M25.758,8.139c2.339,0,4.242,1.903,4.242,4.242V27c0,4.213-2.672,7.995-6.65,9.412l-0.236,0.084
			l-0.168,0.185C22.171,37.531,21.125,38,20,38s-2.171-0.469-2.946-1.319l-0.168-0.185l-0.236-0.084C12.672,34.995,10,31.213,10,27
			V12.381c0-2.339,1.903-4.242,4.242-4.242H25.758 M25.758,7.139H14.242C11.347,7.139,9,9.486,9,12.381V27
			c0,4.78,3.055,8.837,7.315,10.354C17.229,38.358,18.534,39,20,39s2.771-0.642,3.685-1.646C27.945,35.837,31,31.78,31,27V12.381
			C31,9.486,28.653,7.139,25.758,7.139L25.758,7.139z"></path>
	</g>
</g>
<g>
	<path style="fill:#FFC49C;" d="M30.5,23.5V16c0-0.982-0.323-1.995-0.964-3.025C31.099,13.592,32.5,14.55,32.5,16
		c0,3.709-1.362,6.652-1.798,7.5H30.5z M9.282,23.5C8.847,22.74,7.5,20.057,7.5,16c0-2.398,5.939-4.349,13.24-4.349
		c0.763,0,1.514,0.022,2.245,0.067C21.353,12.648,19.031,13.5,16,13.5c-3.142,0-6.5,1.445-6.5,5.5v4.5H9.282z M26.627,11.145
		c-0.298-0.055-0.604-0.105-0.917-0.151c0.136-0.122,0.25-0.231,0.345-0.325C26.21,10.789,26.406,10.949,26.627,11.145z"></path>
	<g>
		<path style="fill:#A16A4A;" d="M20.74,12.151c0.046,0,0.092,0,0.138,0C19.544,12.647,17.92,13,16,13c-4.318,0-7,2.299-7,6v2.7
			c-0.484-1.28-1-3.225-1-5.7C8,14.18,13.232,12.151,20.74,12.151 M30.641,14.08C31.416,14.568,32,15.2,32,16
			c0,2.239-0.513,4.192-1,5.542V16C31,15.367,30.88,14.726,30.641,14.08 M26,10c0,0-0.506,0.604-1.515,1.342
			c1.33,0.142,2.589,0.363,3.71,0.668C27.135,10.787,26,10,26,10L26,10z M20.74,11.151C14.002,11.151,7,12.905,7,16c0,5.044,2,8,2,8
			h1c0,0,0-3.612,0-5c0-3.678,2.963-5,6-5c4.065,0,6.897-1.496,8.485-2.658C23.279,11.214,22.014,11.151,20.74,11.151L20.74,11.151z
			 M28.195,12.01C29.126,13.083,30,14.492,30,16c0,1.527,0,8,0,8h1c0,0,2-3.404,2-8C33,14.092,31.039,12.783,28.195,12.01
			L28.195,12.01z"></path>
	</g>
</g>
<circle style="fill:#36404D;" cx="25.5" cy="23.5" r="1.5"></circle>
<circle style="fill:#36404D;" cx="14.5" cy="23.5" r="1.5"></circle>
<g>
	<path style="fill:#8BB7F0;" d="M7.5,17.1V15C7.5,8.107,13.107,2.5,20,2.5S32.5,8.107,32.5,15v2.1H7.5z"></path>
	<g>
		<path style="fill:#4E7AB5;" d="M20,3c6.617,0,12,5.383,12,12v1.6H8V15C8,8.383,13.383,3,20,3 M20,2C12.82,2,7,7.82,7,15v2.6h26V15
			C33,7.82,27.18,2,20,2L20,2z"></path>
	</g>
</g>
<g>
	<rect x="17.5" y="1.5" style="fill:#8BB7F0;" width="5" height="9.857"></rect>
	<g>
		<path style="fill:#4E7AB5;" d="M22,2v8.857h-4V2H22 M23,1h-6v10.857h6V1L23,1z"></path>
	</g>
</g>
<g>
	<path style="fill:#8BB7F0;" d="M5.5,19.5V18c0-1.379,1.122-2.5,2.5-2.5h24c1.378,0,2.5,1.121,2.5,2.5v1.5H5.5z"></path>
	<g>
		<path style="fill:#4E7AB5;" d="M32,16c1.103,0,2,0.897,2,2v1H6v-1c0-1.103,0.897-2,2-2H32 M32,15H8c-1.657,0-3,1.343-3,3v2h30v-2
			C35,16.343,33.657,15,32,15L32,15z"></path>
	</g>
</g>
<rect x="18" y="9" style="fill:#8BB7F0;" width="4" height="5.429"></rect>
<rect x="10.5" y="13.214" style="fill:#8BB7F0;" width="19" height="4.071"></rect>
</svg>