<svg version="1.1" id="Layer_1" xmlns="http://www.w3.org/2000/svg" xmlns:xlink="http://www.w3.org/1999/xlink" x="0px" y="0px" viewBox="0 0 48 48" enable-background="new 0 0 48 48" xml:space="preserve">
<rect x="7" y="26.1" fill="#3F51B5" width="34" height="7.9"></rect>
<path fill="#263238" d="M41,34c0,0-3.2,7-17,7S7,34,7,34s3.8-2,17-2C37.2,32,41,34,41,34z"></path>
<path fill="#1A237E" d="M46,19C41.8,14.4,28.4,8,24,8C19.6,8,6.3,14.4,2,19c-2.7,2.7-2,4.9-1.8,5.5C1.7,28.1,7,29,7,29
	s2.9-2.1,17-2.1c14.1,0,17,2.1,17,2.1s5.4-0.9,6.8-4.5C48,23.9,48.7,21.7,46,19z"></path>
<path fill="#FFEB3B" d="M41,31.8V34c0,0-3.8-2-17-2c-13.2,0-17,2-17,2v-2.2c1.9-0.6,6.7-1.8,17-1.8C34.3,30,39.2,31.2,41,31.8z
	 M25.4,20.6C25.4,20.6,25.4,20.6,25.4,20.6c0,0.8-0.6,1.4-1.4,1.4c-0.8,0-1.4-0.6-1.4-1.4c0,0,0-0.1,0-0.1c-1.5-1-3.5-2.1-8.6-1.6
	c0,0,2.8-2,5.5-2c2.6,0,4.5,2,4.5,2s1.9-2,4.5-2c2.7,0,5.5,2,5.5,2C28.4,18.7,26.8,19.6,25.4,20.6z"></path>
</svg>