<svg version="1.1" id="Слой_1" xmlns="http://www.w3.org/2000/svg" xmlns:xlink="http://www.w3.org/1999/xlink" x="0px" y="0px" width="48px" height="48px" viewBox="0 0 48 48" enable-background="new 0 0 48 48" xml:space="preserve">
<g>
	<path fill="#FFA726" d="M32,14.5c0,0.829-0.672,1.5-1.5,1.5S29,15.329,29,14.5s0.672-1.5,1.5-1.5S32,13.671,32,14.5"></path>
	<path fill="#FFA726" d="M19,14.5c0,0.829-0.672,1.5-1.5,1.5S16,15.329,16,14.5s0.672-1.5,1.5-1.5S19,13.671,19,14.5"></path>
</g>
<path fill="#4CAF50" d="M33,45v-9h4.7l0.3-3c-1-7-6.82-11-14-11s-13,4-14,11l1,3h4v9H33z"></path>
<path fill="#FF9800" d="M24,26c-4,0-4-4-4-4v-4h8v4C28,22,28,26,24,26z"></path>
<path fill="#1B5E20" d="M24,28c3.821,0,5.527-2.703,5.912-4.994c-0.623-0.232-1.271-0.429-1.946-0.58C27.836,23.453,27.195,26,24,26
	c-3.195,0-3.836-2.547-3.966-3.574c-0.675,0.151-1.323,0.348-1.946,0.58C18.473,25.297,20.179,28,24,28z"></path>
<g>
	<polygon fill="#FFB74D" points="14,40 16,34 10,33 8,39 8,41 14,45 	"></polygon>
	<path fill="#FFB74D" d="M31,10.68c0-5.878-14-3.827-14,0v4.39C17,18.896,20.133,22,24,22c3.866,0,7-3.104,7-6.931V10.68z"></path>
	<polygon fill="#FFB74D" points="40,39 40,41 34,45 34,40 32,34 38,33 	"></polygon>
</g>
<g>
	<line fill="none" stroke="#795548" stroke-width="2" x1="24" y1="45" x2="24" y2="41"></line>
	<polyline fill="none" stroke="#795548" stroke-width="2" points="34,37 24,41 14,37 	"></polyline>
</g>
<path fill="#5D4037" d="M18.994,45C16.64,43.971,15,42.209,15,40c0-3.584,4.313-6,9-6c4.688,0,9,2.416,9,6
	c0,2.209-1.641,3.971-3.994,5H34c1.25-1.402,2-3.102,2-5c0-5.238-5.658-9-12-9c-6.341,0-12,3.762-12,9c0,1.898,0.75,3.598,2,5
	H18.994z"></path>
<ellipse fill="#4E342E" cx="24" cy="41" rx="3" ry="2"></ellipse>
<path fill="#424242" d="M24,3c-4.86,0-8,4.313-8,8.173V13l2,2v-4l9.2-3l2.8,3v4l2-2v-0.808c0-3.22-0.83-6.804-4.8-7.593L26.4,3H24z"></path>
<g>
	<path fill="#784719" d="M26,14c0,0.552,0.448,1,1,1s1-0.448,1-1s-0.448-1-1-1S26,13.448,26,14"></path>
	<path fill="#784719" d="M20,14c0,0.552,0.448,1,1,1s1-0.448,1-1s-0.448-1-1-1S20,13.448,20,14"></path>
</g>
</svg>