<svg version="1.1" id="Слой_1" xmlns="http://www.w3.org/2000/svg" xmlns:xlink="http://www.w3.org/1999/xlink" x="0px" y="0px"  viewBox="0 0 48 48" enable-background="new 0 0 48 48" xml:space="preserve">
<path fill="#7986CB" d="M17.5,6C8.402,6,1,13.402,1,22.5C1,31.598,8.402,39,17.5,39C26.598,39,34,31.598,34,22.5
	C34,13.402,26.598,6,17.5,6L17.5,6z"></path>
<circle fill="#E8EAF6" cx="17.5" cy="22.5" r="13.5"></circle>
<g>
	<path fill="#FFB74D" d="M34.467,9.009C40.861,9.251,46.057,14.711,46,21.109c-0.026,2.834-1.037,5.428-2.704,7.465
		C41.871,30.314,41,32.439,41,34.688v3.782C38.027,40.084,34.621,41,31,41c-0.338,0-0.666-0.034-1-0.051
		c-0.678-0.031-1.342-0.106-2-0.2v-9.367c-3.584-2.076-6-5.942-6-10.382C22,14.218,27.627,8.75,34.467,9.009"></path>
	<path fill="#FFB74D" d="M25.963,34.576L30,34v-9h-8l0.702,7.023C22.864,33.646,24.348,34.808,25.963,34.576"></path>
	<path fill="#FFB74D" d="M19,26l4,1l1-5l-1-4c0,0-2.354,3.521-4.006,5.427C17.161,25.542,19,26,19,26z"></path>
	<path fill="#FFB74D" d="M10.822,18.874c-0.402-2.244-1.432-4.267-2.893-5.893C5.502,15.422,4,18.785,4,22.5
		c0,4.537,2.246,8.542,5.679,10.99c0.319-0.411,0.54-0.908,0.596-1.467l0.517-5.164L14.227,26c0,0,1.839-0.458,0.006-2.573
		C13.097,22.116,11.629,20.042,10.822,18.874z"></path>
</g>
<path fill="#6D4C41" d="M34,8c-3.418,0-6.923,1.038-9,2.923C25,13.12,27.828,17,31,17l1,4l1.387,0.555C33.897,20.632,34.87,20,36,20
	c1.657,0,3,1.343,3,3c0,1.305-0.837,2.403-2,2.816V31l4,3c0.913-3.979,6-5.379,6-13C47,13.82,41.18,8,34,8z"></path>
<path fill="#FF9800" d="M34.797,40.618c-1.295,0.25-2.632,0.382-4,0.382c-0.338,0-0.666-0.035-1-0.051
	c-0.677-0.031-1.138-0.106-1.797-0.201v-6.467l6.797-0.984V40.618z"></path>
<g>
	<path fill="#784719" d="M27,21.5c0,0.828-0.672,1.5-1.5,1.5S24,22.328,24,21.5s0.672-1.5,1.5-1.5S27,20.672,27,21.5"></path>
	<path fill="#784719" d="M5,21.5C5,22.328,5.672,23,6.5,23S8,22.328,8,21.5S7.328,20,6.5,20S5,20.672,5,21.5"></path>
</g>
</svg>