<svg version="1.1" id="Слой_1" xmlns="http://www.w3.org/2000/svg" xmlns:xlink="http://www.w3.org/1999/xlink" x="0px" y="0px"  viewBox="0 0 48 48" enable-background="new 0 0 48 48" xml:space="preserve">
<path fill="#1E88E5" d="M7,8v26c0,2.2,1.8,4,4,4h8l5,6l5-6h8c2.2,0,4-1.8,4-4V8c0-2.2-1.8-4-4-4H11C8.8,4,7,5.8,7,8"></path>
<path fill="#FFCC80" d="M29,16c0,2.762-2.238,5-5,5s-5-2.238-5-5s2.238-5,5-5S29,13.238,29,16"></path>
<path fill="#90CAF9" d="M33,28c0,0-2-5-9-5s-9,5-9,5v2h18V28z"></path>
</svg>