<svg version="1.1" id="Слой_1" xmlns="http://www.w3.org/2000/svg" xmlns:xlink="http://www.w3.org/1999/xlink" x="0px" y="0px" width="48px" height="48px" viewBox="0 0 48 48" enable-background="new 0 0 48 48" xml:space="preserve">
<path fill="#00897B" d="M28,32L28,32l-5,1l-5-1c0,0-11,1.986-11,13h32C39,34.025,28,32,28,32"></path>
<polygon fill="#FF9800" points="23,38 18,32 18,26 28,26 28,32 "></polygon>
<g>
	<path fill="#FFA726" d="M34,20c0,1.105-0.895,2-2,2s-2-0.895-2-2s0.895-2,2-2S34,18.895,34,20"></path>
	<path fill="#FFA726" d="M16,20c0,1.105-0.895,2-2,2s-2-0.895-2-2s0.895-2,2-2S16,18.895,16,20"></path>
</g>
<path fill="#FFB74D" d="M32,14c0-7.635-18-4.971-18,0v7c0,4.971,4.029,9,9,9c4.971,0,9-4.029,9-9V14z"></path>
<path fill="#424242" d="M23,5c-6.075,0-10,4.925-10,11v2.284L15,20v-5l12-4l4,4v5l2-1.741V16c0-4.025-1.038-8.015-6-9l-1-2H23z"></path>
<g>
	<path fill="#784719" d="M26,20c0,0.552,0.448,1,1,1s1-0.448,1-1s-0.448-1-1-1S26,19.448,26,20"></path>
	<path fill="#784719" d="M18,20c0,0.552,0.448,1,1,1s1-0.448,1-1s-0.448-1-1-1S18,19.448,18,20"></path>
</g>
<g>
	<path fill="#F9A825" d="M17,32.252c-0.945,0.278-2.445,0.822-4,1.792V43h4V32.252z"></path>
	<path fill="#F9A825" d="M33,34.058c-1.555-0.973-3.055-1.521-4-1.803V43h4V34.058z"></path>
	<rect x="13" y="41" fill="#F9A825" width="20" height="4"></rect>
</g>
<g>
	<polygon fill="#263238" points="17,41 17,41 13,41 13,41 13,38 13,38 17,38 17,38 	"></polygon>
	<polygon fill="#263238" points="33,41 33,41 29,41 29,41 29,38 29,38 33,38 33,38 	"></polygon>
</g>
<g>
	<path fill="#FF5722" d="M33,15v-2c0-4.971-4.029-9-9-9h-2c-4.971,0-9,4.029-9,9v2H33z"></path>
	<rect x="11" y="14" fill="#FF5722" width="24" height="3"></rect>
</g>
<rect x="20" y="3" fill="#D84315" width="6" height="11"></rect>
</svg>