<svg version="1.1" id="Слой_1" xmlns="http://www.w3.org/2000/svg" xmlns:xlink="http://www.w3.org/1999/xlink" x="0px" y="0px" width="48px" height="48px" viewBox="0 0 48 48" enable-background="new 0 0 48 48" xml:space="preserve">
<path fill="#FFB74D" d="M27,4c2.209,0,4,1.791,4,4s-1.791,4-4,4s-4-1.791-4-4S24.791,4,27,4"></path>
<g>
	<path fill="#1976D2" d="M35.515,28.025c-0.157,0-0.317-0.024-0.475-0.077l-5.515-2.524c-0.449-0.149-0.801-0.502-0.949-0.952L25,16
		c-0.261-0.786,1.055-1.289,1.842-1.549c0.786-0.261,1.635,0.166,1.895,0.953l2.451,7.411l4.802,2.287
		c0.786,0.262,1.21,1.111,0.948,1.897C36.729,27.628,36.143,28.025,35.515,28.025z"></path>
	<path fill="#1976D2" d="M13.999,44c-0.451,0-0.905-0.152-1.279-0.464c-0.849-0.707-0.963-1.968-0.256-2.816l4.738-5.686
		l2.882-9.608L25,27l-4.084,9.574c-0.078,0.259-0.207,0.499-0.38,0.706l-5,6C15.141,43.755,14.572,44,13.999,44z"></path>
</g>
<g>
	<path fill="#2196F3" d="M23.004,30.501c-0.208,0-0.418-0.019-0.63-0.058c-1.902-0.346-3.163-2.168-2.817-4.069l2.5-10.499
		c0.346-1.902,2.167-3.167,4.069-2.817c1.902,0.346,3.163,2.168,2.817,4.069l-2.5,10.499C26.136,29.316,24.663,30.501,23.004,30.501
		z"></path>
	<path fill="#2196F3" d="M32.002,44c-0.646,0-1.28-0.313-1.666-0.891L27,37l-6.6-7.8L25,26l5.232,8.645
		c0.022,0.03,0.044,0.06,0.064,0.091l3.367,6.155c0.612,0.919,0.364,2.161-0.555,2.773C32.769,43.892,32.383,44,32.002,44z"></path>
	<path fill="#2196F3" d="M14.516,29c-0.075,0-0.15-0.006-0.228-0.017c-0.818-0.125-1.382-0.89-1.258-1.709l1.58-7.531
		c0.059-0.383,0.264-0.729,0.571-0.965l6.813-5.219C23,13.001,24,13,25.609,13L24,17l-6.514,3.792l-1.489,6.934
		C15.884,28.468,15.244,29,14.516,29z"></path>
</g>
</svg>