<svg xmlns="http://www.w3.org/2000/svg" width="50" height="50" viewBox="0 0 50 50">
    <path d="M25,0C11.215,0,0,11.215,0,25s11.215,25,25,25s25-11.215,25-25S38.785,0,25,0z M34.707,33.293 c0.391,0.391,0.391,1.023,0,1.414C34.512,34.902,34.256,35,34,35s-0.512-0.098-0.707-0.293L25,26.414l-8.293,8.293 C16.512,34.902,16.256,35,16,35s-0.512-0.098-0.707-0.293c-0.391-0.391-0.391-1.023,0-1.414L23.586,25l-8.293-8.293 c-0.391-0.391-0.391-1.023,0-1.414s1.023-0.391,1.414,0L25,23.586l8.293-8.293c0.391-0.391,1.023-0.391,1.414,0s0.391,1.023,0,1.414 L26.414,25L34.707,33.293z"></path>
</svg>