<svg xmlns="http://www.w3.org/2000/svg" viewBox="0 0 50 50">
    <path style="text-indent:0;text-align:start;line-height:normal;text-transform:none;block-progression:tb;-inkscape-font-specification:Bitstream Vera Sans" d="M 12 9 C 6.1695641 9 0.65625 11.0625 0.65625 11.0625 A 1.0001 1.0001 0 0 0 0 12 L 0 13.5 A 1.0001 1.0001 0 0 0 0.5625 14.40625 L 1.09375 14.65625 C 1.1984372 17.597021 1.921787 20.371149 3.65625 22.4375 C 5.5252322 24.664111 8.4512345 26 12.40625 26 C 15.918814 26 18.669362 24.733193 20.4375 22.6875 C 22.205638 20.641807 23 17.893184 23 15 L 23 12.5625 C 23.357485 12.338076 23.986197 12 25 12 C 26.013803 12 26.642515 12.338076 27 12.5625 L 27 15 C 27 17.893184 27.794362 20.641807 29.5625 22.6875 C 31.330638 24.733193 34.081186 26 37.59375 26 C 41.548765 26 44.474768 24.664111 46.34375 22.4375 C 48.078213 20.371149 48.801563 17.597021 48.90625 14.65625 L 49.4375 14.40625 A 1.0001 1.0001 0 0 0 50 13.5 L 50 12 A 1.0001 1.0001 0 0 0 49.34375 11.0625 C 49.34375 11.0625 43.830436 9 38 9 C 32.658619 9 28.776565 10.612077 28.09375 10.90625 C 27.559369 10.554763 26.585943 10 25 10 C 23.414057 10 22.440631 10.554763 21.90625 10.90625 C 21.223435 10.612077 17.341381 9 12 9 z M 12 11 C 16.785799 11 20.22862 12.394888 21 12.71875 L 21 15 C 21 17.520816 20.289862 19.774193 18.90625 21.375 C 17.522638 22.975807 15.452686 24 12.40625 24 C 8.8902655 24 6.6592678 22.878389 5.1875 21.125 C 3.7157322 19.371611 3 16.878487 3 14 A 1.0001 1.0001 0 0 0 2.4375 13.09375 L 2 12.875 L 2 12.75 C 2.8981724 12.438809 7.175779 11 12 11 z M 38 11 C 42.824221 11 47.101828 12.438809 48 12.75 L 48 12.875 L 47.5625 13.09375 A 1.0001 1.0001 0 0 0 47 14 C 47 16.878487 46.284268 19.371611 44.8125 21.125 C 43.340732 22.878389 41.109735 24 37.59375 24 C 34.547314 24 32.477362 22.975807 31.09375 21.375 C 29.710138 19.774193 29 17.520816 29 15 L 29 12.71875 C 29.77138 12.394888 33.214201 11 38 11 z M 22 28 C 20.715738 28 19.683862 28.638085 19 29.4375 C 18.316138 30.236915 17.883637 31.170101 17.4375 32.03125 C 16.991363 32.892399 16.519836 33.674709 16 34.1875 C 15.480164 34.700291 14.953636 35 14 35 C 12.831974 35 12.141243 34.721078 11.71875 34.40625 C 11.296257 34.091422 11.096883 33.712841 10.96875 33.25 C 10.712485 32.324318 10.9375 31.28125 10.9375 31.28125 A 1.0001 1.0001 0 0 0 9.40625 30.21875 C 9.40625 30.21875 7 31.785219 7 34.5 C 7 35.757 7.4679847 37.386668 8.8125 38.71875 C 10.157015 40.050832 12.336806 41 15.53125 41 C 19.615386 41 22.952418 39.324703 25 37.4375 C 27.047582 39.324703 30.384614 41 34.46875 41 C 37.663194 41 39.842985 40.050832 41.1875 38.71875 C 42.532015 37.386668 43 35.757 43 34.5 C 43 31.785219 40.59375 30.21875 40.59375 30.21875 A 1.0001 1.0001 0 0 0 39.0625 31.28125 C 39.0625 31.28125 39.287515 32.324318 39.03125 33.25 C 38.903117 33.712841 38.703743 34.091422 38.28125 34.40625 C 37.858757 34.721078 37.168026 35 36 35 C 35.046063 35 34.519854 34.700273 34 34.1875 C 33.480146 33.674727 33.008566 32.892382 32.5625 32.03125 C 32.116434 31.170118 31.683784 30.236936 31 29.4375 C 30.316216 28.638064 29.284262 28 28 28 C 26.560463 28 25.56354 28.536772 25 28.875 C 24.436553 28.53672 23.440062 28 22 28 z M 22 30 C 23.10838 30 24.4375 30.8125 24.4375 30.8125 A 1.0001 1.0001 0 0 0 25.5625 30.8125 C 25.5625 30.8125 26.8929 30 28 30 C 28.694738 30 29.061159 30.236936 29.5 30.75 C 29.938841 31.263064 30.352066 32.079882 30.8125 32.96875 C 31.272934 33.857618 31.782979 34.825273 32.59375 35.625 C 33.404521 36.424727 34.558937 37 36 37 C 37.480974 37 38.63968 36.649047 39.46875 36.03125 C 40.190658 35.493307 40.599507 34.784022 40.84375 34.09375 C 40.875501 34.242357 41 34.344574 41 34.5 C 41 35.243 40.707735 36.363332 39.78125 37.28125 C 38.854765 38.199168 37.274306 39 34.46875 39 C 30.532789 39 27.223261 37.081788 25.75 35.4375 A 1.0001 1.0001 0 0 0 24.25 35.4375 C 22.776739 37.081788 19.467211 39 15.53125 39 C 12.725694 39 11.145235 38.199168 10.21875 37.28125 C 9.2922653 36.363332 9 35.243 9 34.5 C 9 34.344574 9.1244994 34.242357 9.15625 34.09375 C 9.4004928 34.784022 9.8093422 35.493307 10.53125 36.03125 C 11.36032 36.649047 12.519026 37 14 37 C 15.440864 37 16.595554 36.424709 17.40625 35.625 C 18.216946 34.825291 18.727012 33.857601 19.1875 32.96875 C 19.647988 32.079899 20.06108 31.263085 20.5 30.75 C 20.93892 30.236915 21.305262 30 22 30 z" color="#000" overflow="visible" font-family="Bitstream Vera Sans"></path>
</svg>