<svg version="1.1" id="Слой_1" xmlns="http://www.w3.org/2000/svg" xmlns:xlink="http://www.w3.org/1999/xlink" x="0px" y="0px" viewBox="0 0 48 48" enable-background="new 0 0 48 48" xml:space="preserve">
<line fill="none" stroke="#795548" stroke-width="2" stroke-linecap="round" stroke-linejoin="round" stroke-miterlimit="10" x1="8" y1="10" x2="14" y2="10"></line>
<path fill="#FFB74D" d="M28,21c-2.206,0-4-1.794-4-4s1.794-4,4-4s4,1.794,4,4S30.206,21,28,21"></path>
<g>
	<line fill="#FF9800" stroke="#4CAF50" stroke-width="4" stroke-linecap="round" x1="30.104" y1="25.789" x2="40" y2="40"></line>
	<path fill="#4CAF50" d="M22,26c-0.512,0-0.61,1.391-1,1l-6.806-7.978l-2.134-8.537c-0.268-1.072,0.384-2.158,1.456-2.426
		c1.068-0.271,2.157,0.384,2.425,1.455l1.866,7.463l5.527,5.459c0.781,0.781,0.862,2.196,0.081,2.978C23.024,25.805,22.512,26,22,26
		z"></path>
	<path fill="#4CAF50" d="M28.478,40l2.482-13.772c0.245-1.358-0.038-2.395-0.376-2.395l-7.921-1.642
		c-1.359-0.245-1.3,0.902-1.545,2.263L18.316,40H28.478z"></path>
</g>
<rect x="16" y="38" fill="#455A64" width="26" height="4"></rect>
<polygon fill="#7986CB" points="6,6.002 6,12.999 9,15 9,6 "></polygon>
</svg>