<svg version="1.1" id="Слой_1" xmlns="http://www.w3.org/2000/svg" xmlns:xlink="http://www.w3.org/1999/xlink" x="0px" y="0px" width="48px" height="48px" viewBox="0 0 48 48" enable-background="new 0 0 48 48" xml:space="preserve">
<g>
	<polygon fill="#607D8B" points="14.287,45.002 18.462,37.486 16.714,36.516 12,45.002 	"></polygon>
	<polygon fill="#607D8B" points="33.713,45.002 29.538,37.486 31.286,36.516 36,45.002 	"></polygon>
</g>
<path fill="#4CAF50" d="M38,38V11.5C38,7.91,35.09,7,31.5,7h-15C12.91,7,10,7.91,10,11.5V38H38z"></path>
<path fill="#388E3C" d="M24,3c-2.206,0-4,1.794-4,4s1.794,4,4,4c2.206,0,4-1.794,4-4S26.206,3,24,3L24,3z"></path>
<circle fill="#FFEB3B" cx="24" cy="7" r="2"></circle>
<g>
	<path fill="#37474F" d="M38,38c0,0,0.001,2-2,2c-2,0-22,0-24,0s-2-2-2-2v-7h28V38z"></path>
	<path fill="#37474F" d="M14,30c1.104,0,2,0.896,2,2s-0.896,2-2,2s-2-0.896-2-2S12.896,30,14,30 M14,28c-2.206,0-4,1.794-4,4
		s1.794,4,4,4s4-1.794,4-4S16.206,28,14,28L14,28z"></path>
	<path fill="#37474F" d="M34,30c1.104,0,2,0.896,2,2s-0.896,2-2,2s-2-0.896-2-2S32.896,30,34,30 M34,28c-2.206,0-4,1.794-4,4
		s1.794,4,4,4s4-1.794,4-4S36.206,28,34,28L34,28z"></path>
</g>
<g>
	<path fill="#0B420D" d="M34.5,12H25v9h9.5c0.828,0,1.5-0.672,1.5-1.5v-6C36,12.672,35.328,12,34.5,12z"></path>
	<path fill="#0B420D" d="M23,12h-9.5c-0.829,0-1.5,0.672-1.5,1.5v6c0,0.828,0.671,1.5,1.5,1.5H23V12z"></path>
</g>
<g>
	<circle fill="#C5CAE9" cx="14" cy="32" r="2"></circle>
	<circle fill="#C5CAE9" cx="34" cy="32" r="2"></circle>
</g>
</svg>