<svg version="1.1" id="Слой_1" xmlns="http://www.w3.org/2000/svg" xmlns:xlink="http://www.w3.org/1999/xlink" x="0px" y="0px" width="48px" height="48px" viewBox="0 0 48 48" enable-background="new 0 0 48 48" xml:space="preserve">
<g>
	<path fill="#CFD8DC" d="M32,15c0,1.104-0.896,2-2,2H18c-1.104,0-2-0.896-2-2v-5c0-1.104,0.896-2,2-2h12c1.104,0,2,0.896,2,2V15z"></path>
	<path fill="#CFD8DC" d="M36,24H12v-9c0-1.104,0.896-2,2-2h20c1.104,0,2,0.896,2,2V24z"></path>
</g>
<g>
	<rect x="15" y="15" fill="#546E7A" width="2" height="2"></rect>
	<rect x="19" y="15" fill="#546E7A" width="2" height="2"></rect>
	<rect x="23" y="15" fill="#546E7A" width="2" height="2"></rect>
	<rect x="27" y="15" fill="#546E7A" width="2" height="2"></rect>
	<rect x="31" y="15" fill="#546E7A" width="2" height="2"></rect>
	<rect x="19" y="10" fill="#546E7A" width="2" height="2"></rect>
	<rect x="23" y="10" fill="#546E7A" width="2" height="2"></rect>
	<rect x="27" y="10" fill="#546E7A" width="2" height="2"></rect>
</g>
<path fill="#3F51B5" d="M24,17c-3,0-14,6-14,6s2,11,6.417,17.584c1.889,2.814,4.935-0.404,7.583-0.583
	c2.648,0.179,5.693,3.397,7.583,0.583C36,34,38,23,38,23S27,17,24,17z"></path>
<path fill="#283593" d="M27.936,18.084C26.277,17.443,24.831,17,24,17s-2.278,0.443-3.935,1.084l3.471,21.979
	c0.155-0.028,0.31-0.051,0.464-0.062c0.154,0.011,0.309,0.032,0.464,0.062L27.936,18.084z"></path>
<path fill="#90CAF9" d="M44,35c-3,0-4-2-4-2s-1,2-4,2s-4-2-4-2s-1,2-4,2s-4-2-4-2s-1,2-4,2s-4-2-4-2s-1,2-4,2s-4-2-4-2s-1,2-4,2v8h4
	h32h4V35z"></path>
<path fill="#2196F3" d="M44,39c-3,0-4-2-4-2s-1,2-4,2s-4-2-4-2s-1,2-4,2s-4-2-4-2s-1,2-4,2s-4-2-4-2s-1,2-4,2s-4-2-4-2s-1,2-4,2v4h4
	h32h4V39z"></path>
<g>
	<polygon points="30,29 29,32 31,33 32,30 	"></polygon>
	<polygon points="18,29 19,32 17,33 16,30 	"></polygon>
</g>
<rect x="23" y="4" fill="#90A4AE" width="2" height="4"></rect>
</svg>