<svg version="1.1" id="Слой_1" xmlns="http://www.w3.org/2000/svg" xmlns:xlink="http://www.w3.org/1999/xlink" x="0px" y="0px"  viewBox="0 0 48 48" enable-background="new 0 0 48 48" xml:space="preserve">
<g>
	<path fill="#685D0D" d="M30,10H18V6c0,0,3-2,6-2s6,2,6,2V10z"></path>
	<rect x="7" y="40" fill="#685D0D" width="4" height="3"></rect>
	<rect x="37" y="40" fill="#685D0D" width="4" height="3"></rect>
</g>
<g>
	<path fill="#CDDC39" d="M11,41H7c-1,0-0.997-1.347-0.99-2.001c0.139-13.761,1.735-21.987,4.869-25.12l0.317-0.317l8.271-4.397
		l2.817,5.297l-7.369,3.918c-0.702,1.023-2.741,5.302-2.905,20.619C12.003,39.646,12,41,11,41z"></path>
	<path fill="#CDDC39" d="M41,41h-4c-1,0-1.004-1.351-1.01-1.996c-0.164-15.289-2.194-19.583-2.9-20.617l-7.605-3.979l2.781-5.316
		l8.531,4.463l0.324,0.324c3.135,3.133,4.73,11.359,4.869,25.12C41.996,39.653,42,41,41,41z"></path>
	<polygon fill="#CDDC39" points="34,13 28,9 20,9 14,13 14,44 34,44 	"></polygon>
</g>
<g>
	<path fill="none" stroke="#7CB342" stroke-width="2" stroke-linecap="round" d="M25.28,29.096
		c-3.125-3.356-3.914-8.574-3.914-8.574"></path>
	<path fill="#7CB342" d="M29.334,25.102c-1.51-2.669-4.081-3.337-6.876-0.383c-0.007-0.002-0.014-0.001-0.021-0.003
		c2.119,7.368,4.332,10.645,5.693,12.066c0.001,0,0.002,0.001,0.003,0.001C27.372,34.277,31.467,28.875,29.334,25.102z"></path>
</g>
<path fill="#689F38" d="M22.458,24.719c-3.259-0.7-5.295,2.438-4.207,5.293c1.54,4.035,8.36,6.221,9.879,6.771
	c-1.361-1.422-3.574-4.698-5.693-12.066C22.444,24.718,22.451,24.717,22.458,24.719z"></path>
<path fill="#9E9D24" d="M24,8c-3,0-6-2-6-2v4c0,0,3,2,6,2s6-2,6-2V6C30,6,27,8,24,8z"></path>
<path fill="#827717" d="M24,8c-0.335,0-0.669-0.028-1-0.072V16h2V7.928C24.669,7.972,24.335,8,24,8z"></path>
</svg>