<svg version="1.1" id="Layer_1" xmlns="http://www.w3.org/2000/svg" xmlns:xlink="http://www.w3.org/1999/xlink" x="0px" y="0px" viewBox="0 0 40 40" style="enable-background:new 0 0 40 40;" xml:space="preserve">
<path style="fill:none;stroke:#66798F;stroke-miterlimit:10;" d="M15.929,8.857c0,0,1.65-1.357,4.071-1.357s4.071,1.357,4.071,1.357
	"></path>
<g>
	<g>
		<path style="fill:#FFC49C;" d="M27.648,34.5c-3.597,0-6.227-1.567-7.648-3.191c-1.422,1.624-4.052,3.191-7.648,3.191
			c-4.289,0-6.852-3.3-6.852-6.49c0-1.589,0.703-2.787,0.732-2.837l0.146-0.244h0.953v0.5c0,2.701,1.119,4.071,3.325,4.071
			c1.383,0,2.035-1.166,2.791-2.517c0.915-1.633,1.951-3.483,4.517-3.483c0.777,0,1.495,0.432,2.036,0.889
			c0.541-0.457,1.259-0.889,2.036-0.889c2.565,0,3.602,1.851,4.517,3.483c0.756,1.351,1.408,2.517,2.791,2.517
			c2.206,0,3.325-1.37,3.325-4.071v-0.5h0.953l0.146,0.244c0.029,0.05,0.732,1.248,0.732,2.837C34.5,31.2,31.937,34.5,27.648,34.5z"></path>
	</g>
	<g>
		<path style="fill:#A16A4A;" d="M22.036,24c4.326,0,3.778,6,7.308,6c3.348,0,3.826-2.855,3.826-4.571h0.169
			c0,0,0.662,1.111,0.662,2.581c0,3.116-2.556,5.99-6.351,5.99c-3.926,0-6.519-1.925-7.649-3.493C18.871,32.075,16.277,34,12.351,34
			C8.556,34,6,31.126,6,28.01c0-1.47,0.662-2.581,0.662-2.581h0.169c0,1.716,0.478,4.571,3.826,4.571c3.53,0,2.982-6,7.308-6
			c0.834,0,1.628,0.664,2.036,1.067C20.407,24.664,21.202,24,22.036,24 M22.036,23c-0.768,0-1.469,0.341-2.036,0.754
			C19.433,23.341,18.733,23,17.964,23c-2.859,0-4.02,2.074-4.953,3.74C12.203,28.183,11.695,29,10.656,29
			c-0.699,0-2.826,0-2.826-3.571v-1h-1H6.662H6.094l-0.291,0.488C5.721,25.055,5,26.314,5,28.01C5,31.446,7.75,35,12.351,35
			c3.468,0,6.085-1.401,7.649-2.961C21.564,33.599,24.181,35,27.649,35C32.25,35,35,31.446,35,28.01
			c0-1.696-0.721-2.955-0.803-3.093l-0.291-0.488h-0.568h-0.169h-1v1C32.169,29,30.043,29,29.344,29
			c-1.039,0-1.547-0.817-2.355-2.26C26.056,25.074,24.894,23,22.036,23L22.036,23z"></path>
	</g>
</g>
<g>
	<circle style="fill:#C8D1DB;" cx="29.5" cy="13.5" r="7"></circle>
	<path style="fill:#66798F;" d="M29.5,7c3.584,0,6.5,2.916,6.5,6.5S33.084,20,29.5,20S23,17.084,23,13.5S25.916,7,29.5,7 M29.5,6
		C25.358,6,22,9.358,22,13.5s3.358,7.5,7.5,7.5s7.5-3.358,7.5-7.5S33.642,6,29.5,6L29.5,6z"></path>
</g>
<rect x="36" y="13" style="fill:#66798F;" width="3" height="1"></rect>
<g>
	<circle style="fill:#C8D1DB;" cx="10.5" cy="13.5" r="7"></circle>
	<path style="fill:#66798F;" d="M10.5,7c3.584,0,6.5,2.916,6.5,6.5S14.084,20,10.5,20S4,17.084,4,13.5S6.916,7,10.5,7 M10.5,6
		C6.358,6,3,9.358,3,13.5S6.358,21,10.5,21s7.5-3.358,7.5-7.5S14.642,6,10.5,6L10.5,6z"></path>
</g>
<rect x="1" y="13" transform="matrix(-1 -1.224647e-16 1.224647e-16 -1 5 27)" style="fill:#66798F;" width="3" height="1"></rect>
</svg>