<?xml version="1.0" encoding="utf-8"?><!-- Generator: Adobe Illustrator 18.1.1, SVG Export Plug-In . SVG Version: 6.00 Build 0)  --><svg version="1.1" id="Layer_1" xmlns="http://www.w3.org/2000/svg" xmlns:xlink="http://www.w3.org/1999/xlink" x="0px" y="0px" viewBox="0 0 48 48" enable-background="new 0 0 48 48" xml:space="preserve">
<g>
	<path fill="#FFA000" d="M40,12H22l-4-4H8c-2.2,0-4,1.8-4,4v8h40v-4C44,13.8,42.2,12,40,12z"></path>
</g>
<g>
	<path fill="#FFCA28" d="M40,12H8c-2.2,0-4,1.8-4,4v20c0,2.2,1.8,4,4,4h32c2.2,0,4-1.8,4-4V16C44,13.8,42.2,12,40,12z"></path>
</g>
<path fill="#7CB342" d="M24,17.5c-5.2,0-9.5,4.3-9.5,9.5s4.3,9.5,9.5,9.5s9.5-4.3,9.5-9.5S29.2,17.5,24,17.5z"></path>
<path fill="#0277BD" d="M34,27c0,5.6-4.5,10-10,10s-10-4.4-10-10s4.4-10,10-10S34,21.4,34,27z M23.9,31.6c0-0.2-0.1-0.3-0.3-0.4
	C23,31,22.4,31,21.9,30.5c-0.1-0.2-0.1-0.4-0.2-0.6c-0.2-0.2-0.7-0.3-1-0.4c-0.4,0-0.8,0-1.3,0c-0.2,0-0.5,0-0.7,0
	c-0.3-0.1-0.5-0.5-0.7-0.8c0-0.1,0-0.3-0.2-0.3c-0.2-0.1-0.4,0.1-0.6,0c-0.1-0.1-0.1-0.2-0.1-0.3c0-0.3,0.2-0.6,0.4-0.8
	c0.3-0.2,0.6,0.1,0.9,0.1c0.1,0,0.1,0,0.2,0.1c0.3,0.1,0.4,0.5,0.4,0.8c0,0.1,0,0.2,0,0.2c0,0.1,0.1,0.1,0.2,0.1
	c0.1-0.5,0.1-1,0.2-1.5c0-0.6,0.6-1.2,1.1-1.4c0.2-0.1,0.3,0.1,0.5,0c0.6-0.2,2.1-0.8,1.8-1.6c-0.2-0.7-0.8-1.4-1.6-1.3
	c-0.2,0.1-0.3,0.2-0.5,0.3c-0.3,0.2-0.9,0.8-1.2,0.8c-0.5-0.1-0.5-0.8-0.4-1.1c0.1-0.4,1-1.7,1.6-1.5c0.1,0.1,0.3,0.3,0.4,0.4
	c0.2,0.1,0.5,0.1,0.8,0.1c0.1,0,0.2,0,0.3-0.1s0.1-0.1,0.1-0.2c0-0.3-0.3-0.6-0.5-0.8c-0.2-0.2-0.5-0.4-0.8-0.5
	c-1-0.3-2.6,0.1-3.4,0.8c-0.8,0.7-1.4,1.9-1.8,2.9c-0.2,0.6-0.4,1.4-0.5,2.1c-0.1,0.5-0.2,0.9,0.1,1.4c0.3,0.6,0.9,1.2,1.5,1.6
	c0.4,0.3,1.2,0.3,1.6,0.8c0.3,0.4,0.2,0.9,0.2,1.4c0,0.6,0.4,1.1,0.6,1.6c0.1,0.3,0.2,0.7,0.3,1c0,0.1,0.1,0.7,0.1,0.8
	c0.6,0.3,1.1,0.6,1.8,0.8c0.1,0,0.5-0.6,0.5-0.7c0.3-0.3,0.5-0.7,0.8-0.9c0.2-0.1,0.4-0.2,0.6-0.4c0.2-0.2,0.3-0.6,0.4-0.9
	C23.9,32.3,24,31.9,23.9,31.6z M24.1,22.4c0.1,0,0.2-0.1,0.4-0.2c0.3-0.2,0.6-0.5,0.9-0.7c0.3-0.2,0.6-0.5,0.8-0.7
	c0.3-0.2,0.5-0.6,0.6-0.9c0.1-0.2,0.4-0.6,0.3-0.9c-0.1-0.2-0.6-0.3-0.8-0.4c-0.8-0.2-1.5-0.3-2.3-0.3c-0.3,0-0.7,0.1-0.8,0.4
	c-0.1,0.5,0.3,0.4,0.7,0.5c0,0,0.1,0.8,0.1,0.9c0.1,0.5-0.2,0.8-0.2,1.3c0,0.3,0,0.8,0.2,1H24.1z M32.5,29.4
	c0.1-0.2,0.1-0.5,0.2-0.7c0.1-0.5,0.1-1,0.1-1.5c0-1-0.1-2-0.4-2.9c-0.2-0.3-0.3-0.6-0.4-0.9c-0.2-0.5-0.5-1-0.9-1.4
	c-0.4-0.5-0.9-1.9-1.8-1.5c-0.3,0.1-0.5,0.5-0.7,0.7c-0.2,0.3-0.4,0.6-0.6,0.9c-0.1,0.1-0.2,0.3-0.1,0.4c0,0.1,0.1,0.1,0.2,0.1
	c0.2,0.1,0.3,0.1,0.5,0.2c0.1,0,0.2,0.1,0.1,0.2c0,0,0,0.1-0.1,0.1c-0.5,0.5-1,0.9-1.5,1.4c-0.1,0.1-0.2,0.3-0.2,0.4
	c0,0.1,0.1,0.1,0.1,0.2s-0.1,0.1-0.2,0.2c-0.2,0.1-0.4,0.2-0.5,0.3c-0.1,0.2,0,0.5-0.1,0.7c-0.1,0.5-0.4,0.9-0.6,1.4
	c-0.2,0.3-0.3,0.6-0.5,0.9c0,0.4-0.1,0.7,0.1,1c0.5,0.7,1.4,0.3,2.1,0.6c0.2,0.1,0.4,0.1,0.5,0.3c0.3,0.3,0.3,0.8,0.4,1.1
	c0.1,0.4,0.2,0.8,0.4,1.2c0.1,0.5,0.3,1,0.4,1.4c0.9-0.7,1.7-1.5,2.3-2.5C31.9,31,32.2,30.2,32.5,29.4z"></path>
</svg>