<svg version="1.1" id="Layer_1" xmlns="http://www.w3.org/2000/svg" xmlns:xlink="http://www.w3.org/1999/xlink" x="0px" y="0px" viewBox="0 0 48 48" enable-background="new 0 0 48 48" xml:space="preserve">
<path fill="#BBDEFB" d="M21,16c0,3.3-2.8,6-7.5,6h-0.9C7.9,22,6,19.3,6,16l0,0c0-3.3,0.4-6,7-6h1C20.6,10,21,12.7,21,16L21,16z
	 M42,16c0-3.3-0.4-6-7-6h-1c-6.6,0-7,2.7-7,6l0,0c0,3.3,1.9,6,6.6,6h0.9C39.2,22,42,19.3,42,16L42,16z"></path>
<path fill="#795548" d="M40.6,31c3.1,0.9,2,5.4-3.3,3.6c-2.5-0.8-3.7-3.5-5-5c-1.1-1.4-2.6-2.6-5.3-2.6c-1.2,0-2.3,0.5-3.1,1.2
	c-0.8-0.8-1.9-1.2-3.1-1.2c-2.6,0-4.2,1.2-5.3,2.6c-1.2,1.5-2.5,4.3-5,5c-5.3,1.8-6.4-2.7-3.3-3.6C5.2,30.8,4,32,4,33.8
	c0,2.4,1.5,5.2,9,5.2c4.1,0,8.7-1.1,11-3.5c2.3,2.5,6.9,3.5,11,3.5c7.4,0,9-2.7,9-5.2C44,32,42.8,30.8,40.6,31z"></path>
<path fill="#4E342E" d="M42.7,31.4c-0.1,0-0.2-0.1-0.3-0.1c-0.1,0-0.1-0.1-0.2-0.1c-0.2-0.1-0.4-0.1-0.6-0.1c0,0,0,0,0,0
	c-0.2,0-0.4,0-0.6,0c-0.1,0-0.3,0-0.4,0c1.3,0.4,1.9,1.4,1.7,2.3c0.2,1-0.1,2.2-1.7,3.2c-1.1,0.5-2.8,0.9-5.5,0.9c-3.3,0-8-1-10-3.3
	c-0.6-0.7-1-1.5-1-2.5c0,1-0.4,1.8-1,2.5c-2,2.3-6.7,3.3-10,3.3c-2.7,0-4.4-0.4-5.5-0.9c-1.7-1-2-2.2-1.7-3.2
	c-0.2-0.9,0.4-2,1.7-2.3c-0.1,0-0.3,0-0.4,0c-0.2,0-0.4,0-0.6,0c0,0,0,0,0,0c-0.2,0-0.4,0.1-0.6,0.1c-0.1,0-0.2,0.1-0.3,0.1
	c-0.1,0-0.1,0.1-0.2,0.1C4.5,31.8,4,32.7,4,33.8c0,2.4,1.5,5.2,9,5.2c3.1,0,6.4-0.6,8.9-1.9c0.8-0.4,1.5-1,2.1-1.6l0,0c0,0,0,0,0,0
	c2.3,2.5,6.9,3.5,11,3.5c1.9,0,3.4-0.2,4.5-0.5c3.3-0.8,4.3-2.6,4.4-4.2c0-0.2,0-0.3,0-0.5C44,32.7,43.5,31.8,42.7,31.4z"></path>
<path fill="#0097A7" d="M45,11c-0.2-0.2-2.8-2-10-2h-1c-0.5,0-1,0-1.5,0.1c-3.3,0.2-5.1,0.7-6.9,1.6c-0.1,0-0.7,0.3-1.5,0.3
	c0,0,0,0-0.1,0c0,0,0,0,0,0c-0.8,0-1.4-0.3-1.5-0.3l-0.2-0.1c-1.7-0.8-2.8-1.4-6.9-1.6c0,0,0,0,0,0c-0.2,0-0.4,0-0.6,0
	c-0.2,0-0.5,0-0.7,0h-1c-7.2,0-9.8,1.8-10,2c-0.6,0-1,0.4-1,1v1c0,0.6,0.4,1,1,1c0,0,2,0,2,1c0,0.1,0,0.1,0,0.2c0,0.3,0,0.6,0,0.8
	c0,4.4,2.8,7,7.6,7h0.9c5,0,8.5-2.9,8.5-7c0-0.5,0-1-0.1-1.5l0.5-0.2c0.1,0,0.7-0.3,1.6-0.3c0,0,0,0,0,0c0,0,0.1,0,0.1,0
	c0.8,0,1.5,0.3,1.5,0.3l0.5,0.2c0,0.5-0.1,1-0.1,1.5c0,4.4,2.8,7,7.6,7h0.9c5,0,8.5-2.9,8.5-7c0-0.3,0-0.6,0-0.8c0,0,0-0.1,0-0.2
	c0-1,2-1,2-1c0.6,0,1-0.4,1-1v-1C46,11.4,45.6,11,45,11z M26.5,12.5L26.5,12.5L26.5,12.5C26.5,12.5,26.5,12.5,26.5,12.5z M21.5,12.5
	L21.5,12.5L21.5,12.5C21.5,12.5,21.5,12.5,21.5,12.5z M13.5,21h-0.9C8,21,7,18.3,7,16c0-2.8,0-5,6-5c0.8,0,1.5,0,2.1,0
	c4.9,0.3,4.9,2.4,4.9,5C20,18.9,17.3,21,13.5,21z M34.5,21h-0.9C29,21,28,18.3,28,16c0-2.5,0-4.5,4.4-4.9C33.1,11,34,11,35,11
	c6,0,6,2.2,6,5C41,18.9,38.3,21,34.5,21z"></path>
<path fill="none" stroke="#FFFFFF" stroke-width="2" stroke-linecap="round" d="M10,16c0,0,0-2,3-2 M34,14c-3,0-3,2-3,2"></path>
</svg>