<svg version="1.1" id="Слой_1" xmlns="http://www.w3.org/2000/svg" xmlns:xlink="http://www.w3.org/1999/xlink" x="0px" y="0px" viewBox="0 0 48 48" enable-background="new 0 0 48 48" xml:space="preserve">
<path fill="#B0BEC5" d="M29.83,13.301l-18.934,7.157c-1.041,0.358-1.597,1.495-1.24,2.54c0.357,1.045,1.492,1.602,2.535,1.244
	l18.932-7.157L29.83,13.301z"></path>
<path fill="#FF1744" d="M28.416,18.109l5.649-2.067c1.043-0.358,1.597-1.495,1.241-2.54c-0.357-1.045-1.491-1.601-2.534-1.244
	l-5.69,2.085L28.416,18.109z"></path>
<g>
	<path fill="#78909C" d="M9.441,40.947l1.611-1.184C9.3,37.374,7.332,31.23,8.24,27.041c0.346-1.59,1.139-2.417,2.215-3.025
		c-0.358-0.236-0.648-0.58-0.797-1.017c-0.088-0.256-0.119-0.517-0.104-0.771L9.549,22.23c-1.66,0.927-2.789,2.199-3.264,4.386
		C5.203,31.604,7.464,38.254,9.441,40.947z"></path>
	<path fill="#78909C" d="M19.046,38V18c0-1.104-0.896-2-2-2s-2,0.896-2,2v20H19.046z"></path>
</g>
<g>
	<path fill="#455A64" d="M8.089,42h17.957v-1c0-1.657-1.34-3-2.993-3H11.08c-1.651,0-2.991,1.343-2.991,3V42z"></path>
	<path fill="#455A64" d="M31.894,8.265c-2.602,0.908-3.976,3.759-3.069,6.366l0.654,1.889c0.906,2.608,3.749,3.986,6.353,3.078
		l2.825-0.986c2.603-0.908,3.976-3.759,3.069-6.366l-0.654-1.89c-0.906-2.607-3.749-3.985-6.352-3.077L31.894,8.265z"></path>
</g>
</svg>