<?xml version="1.0" encoding="utf-8"?><!-- Generator: Adobe Illustrator 18.1.1, SVG Export Plug-In . SVG Version: 6.00 Build 0)  --><svg version="1.1" id="Слой_1" xmlns="http://www.w3.org/2000/svg" xmlns:xlink="http://www.w3.org/1999/xlink" x="0px" y="0px"  viewBox="0 0 48 48" enable-background="new 0 0 48 48" xml:space="preserve">
<rect x="7" y="3" fill="#BBDEFB" width="34" height="42"></rect>
<g>
	<rect x="13" y="9" fill="#1976D2" width="22" height="5"></rect>
	<rect x="13" y="9" fill="#1976D2" width="22" height="5"></rect>
	<path fill="#1976D2" d="M13,24h10v2H13V24z M13,22h18v-2H13V22z M13,34h10v-2H13V34z M13,38h18v-2H13V38z M13,30h15v-2H13V30z
		 M35,20h-2v2h2V20z M35,24h-2v2h2V24z M35,36h-2v2h2V36z M35,28h-2v2h2V28z M35,32h-2v2h2V32z"></path>
</g>
</svg>