<?xml version="1.0" encoding="utf-8"?><!-- Generator: Adobe Illustrator 18.1.1, SVG Export Plug-In . SVG Version: 6.00 Build 0)  --><svg version="1.1" id="Слой_1" xmlns="http://www.w3.org/2000/svg" xmlns:xlink="http://www.w3.org/1999/xlink" x="0px" y="0px" width="48px" height="48px" viewBox="0 0 48 48" enable-background="new 0 0 48 48" xml:space="preserve">
<g>
	<path fill="#90CAF9" d="M35,44c-7,0-23,0-23,0V4h30v8v25C42,37,42,44,35,44z"></path>
	<path fill="#90CAF9" d="M35,44c-7,0-23,0-23,0V4h30v8v25C42,37,42,44,35,44z"></path>
</g>
<path fill="#42A5F5" d="M35,39v-6H12v6v5c0,0,16,0,23,0c1.498,0,2.66-0.332,3.586-0.836C35.015,42.158,35,39,35,39z"></path>
<path fill="#BBDEFB" d="M28,37v-2H6v2c0,0,0,7,7,7c6.303,0,14.97,0,22,0C28,44,28,37,28,37z"></path>
</svg>