<?xml version="1.0" encoding="utf-8"?><!-- Generator: Adobe Illustrator 18.1.1, SVG Export Plug-In . SVG Version: 6.00 Build 0)  --><svg version="1.1" id="Слой_1" xmlns="http://www.w3.org/2000/svg" xmlns:xlink="http://www.w3.org/1999/xlink" x="0px" y="0px" width="48px" height="48px" viewBox="0 0 48 48" enable-background="new 0 0 48 48" xml:space="preserve">
<g>
	<circle fill="#BBDEFB" cx="18.5" cy="17.5" r="8.5"></circle>
	<circle fill="#BBDEFB" cx="19" cy="32" r="7"></circle>
	<circle fill="#BBDEFB" cx="11" cy="26" r="7"></circle>
	<circle fill="#BBDEFB" cx="38" cy="25" r="6"></circle>
	<circle fill="#BBDEFB" cx="30" cy="30" r="6"></circle>
	<circle fill="#BBDEFB" cx="30.5" cy="18.5" r="6.5"></circle>
	<circle fill="#BBDEFB" cx="23" cy="24" r="7"></circle>
</g>
<g>
	<circle fill="#3F51B5" cx="23" cy="22" r="4"></circle>
	<path fill="#3F51B5" d="M25,29c0,1.104-0.896,2-2,2l0,0c-1.104,0-2-0.896-2-2v-6c0-1.104,0.896-2,2-2l0,0c1.104,0,2,0.896,2,2V29z"></path>
</g>
</svg>